<svg xmlns="http://www.w3.org/2000/svg"><symbol id="arrow-down" viewBox="0 0 16 16"><path d="M2.539 2.667L0 5.236l8 8.097 8-8.097-2.538-2.569L8 8.196 2.539 2.667z" fill="currentColor"/></symbol><symbol id="arrow-left" viewBox="0 0 16 16"><path d="M13.333 2.539L10.764 0 2.667 8l8.097 8 2.569-2.538L7.804 8l5.529-5.461z" fill="currentColor"/></symbol><symbol id="arrow-right" viewBox="0 0 16 16"><path d="M8.196 8l-5.529 5.462L5.236 16l8.097-8-8.097-8-2.569 2.539L8.196 8z" fill="currentColor"/></symbol><symbol id="cursor-default" viewBox="0 0 16 16"><path d="M8 8.727l3.272 5.819L8.8 16l-3.345-5.891-3.273 4.437V0l11.637 8.727H8z" fill="currentColor"/></symbol><symbol id="gear" viewBox="0 0 16 16"><path d="M7.999 10.893a2.892 2.892 0 0 1 0-5.787A2.887 2.887 0 0 1 10.882 8a2.885 2.885 0 0 1-2.883 2.893zm5.798-4.555l-.521-1.256 1.053-2.067-1.289-1.289-2.115.999-1.256-.515L9.031.259 8.95 0H7.128l-.789 2.202-1.256.518-2.069-1.048L1.726 2.96l.998 2.116-.518 1.255L0 7.05v1.821l2.204.79.518 1.253-.927 1.83-.122.239L2.96 14.27l2.118-.997 1.254.519.637 1.949.08.259H8.87l.789-2.205 1.253-.519 2.072 1.051 1.288-1.287-.998-2.114.516-1.256L16 8.951V7.13l-2.203-.792z" fill="currentColor"/></symbol><symbol id="sort-asc" viewBox="0 0 16 16"><path d="M10.718 2V.286a.282.282 0 0 0-.079-.206.28.28 0 0 0-.205-.08H8.146a.277.277 0 0 0-.286.286V2a.277.277 0 0 0 .286.286h2.286A.276.276 0 0 0 10.718 2zM6.432 12.857a.285.285 0 0 0-.08-.207.283.283 0 0 0-.206-.08H4.432V.285a.28.28 0 0 0-.08-.205.275.275 0 0 0-.206-.08H2.432a.265.265 0 0 0-.204.081.277.277 0 0 0-.081.205v12.286H.433c-.131 0-.221.059-.268.178-.048.113-.027.217.062.312l2.857 2.856a.297.297 0 0 0 .411.001l2.848-2.849a.333.333 0 0 0 .089-.213zm6.002-6.285V4.857a.277.277 0 0 0-.287-.286h-4a.28.28 0 0 0-.205.08.282.282 0 0 0-.082.206v1.714a.276.276 0 0 0 .286.286h4a.28.28 0 0 0 .288-.285zm1.712 4.573V9.43a.273.273 0 0 0-.287-.285H8.146a.273.273 0 0 0-.205.08.273.273 0 0 0-.081.205v1.715c0 .082.027.15.081.205a.28.28 0 0 0 .205.08h5.713a.285.285 0 0 0 .207-.08.28.28 0 0 0 .08-.205zm1.713 4.57V14a.274.274 0 0 0-.284-.285H8.146A.277.277 0 0 0 7.86 14v1.715a.277.277 0 0 0 .286.285h7.429a.273.273 0 0 0 .284-.285z" fill="currentColor"/></symbol><symbol id="sort-desc" viewBox="0 0 16 16"><path d="M6.432 12.857a.281.281 0 0 0-.08-.206.279.279 0 0 0-.206-.08H4.432V.285A.276.276 0 0 0 4.146 0H2.432c-.084 0-.152.026-.206.08s-.08.121-.08.205v12.286H.431c-.131 0-.22.06-.268.179-.047.113-.027.217.062.312l2.857 2.857a.325.325 0 0 0 .207.081.3.3 0 0 0 .205-.08l2.848-2.849a.333.333 0 0 0 .09-.214zM15.861 2V.286A.28.28 0 0 0 15.78.08a.277.277 0 0 0-.205-.08H8.146a.276.276 0 0 0-.285.287V2c0 .083.026.152.08.206.053.053.122.08.205.08h7.429a.279.279 0 0 0 .205-.08.28.28 0 0 0 .081-.206zm-1.714 4.572V4.857a.277.277 0 0 0-.286-.287H8.146a.276.276 0 0 0-.285.287v1.714a.275.275 0 0 0 .285.285h5.715a.277.277 0 0 0 .286-.284zm-1.714 4.572V9.429a.277.277 0 0 0-.286-.286h-4a.276.276 0 0 0-.285.286v1.715c0 .083.026.151.08.205.053.053.122.08.205.08h4a.28.28 0 0 0 .205-.08.281.281 0 0 0 .081-.205zm-1.715 4.571V14a.277.277 0 0 0-.285-.286H8.146a.276.276 0 0 0-.285.286v1.715a.275.275 0 0 0 .285.285h2.287a.275.275 0 0 0 .285-.285z" fill="currentColor"/></symbol><symbol id="star-outline" viewBox="0 0 16 16"><path d="M11.625 13.765L8 11.852l-3.635 1.913.702-4.048L2.125 6.86l4.058-.596L8 2.592l1.817 3.673 4.058.596-2.942 2.856.692 4.048zM16 6.283c0-.236-.18-.384-.538-.441l-4.827-.702L8.471.765C8.349.502 8.192.37 8 .37s-.35.132-.471.395L5.365 5.14l-4.826.702C.18 5.899 0 6.047 0 6.283c0 .135.08.289.24.462l3.5 3.403-.827 4.809c-.013.09-.02.153-.02.191a.57.57 0 0 0 .101.342c.067.094.168.14.303.14a.814.814 0 0 0 .385-.115L8 13.245l4.317 2.27a.778.778 0 0 0 .385.115c.263 0 .394-.16.394-.481 0-.082-.003-.146-.009-.191l-.827-4.809 3.49-3.403c.167-.168.25-.321.25-.463z" fill="currentColor"/></symbol><symbol id="star" viewBox="0 0 16 16"><path d="M16 6.283c0-.236-.18-.384-.538-.441l-4.827-.702L8.471.765C8.349.502 8.192.37 8 .37s-.35.132-.471.395L5.365 5.14l-4.826.702C.18 5.899 0 6.047 0 6.283c0 .135.08.289.24.462l3.5 3.403-.827 4.809c-.013.09-.02.153-.02.191a.57.57 0 0 0 .101.342c.067.094.168.14.303.14a.814.814 0 0 0 .385-.115L8 13.245l4.317 2.27a.778.778 0 0 0 .385.115.337.337 0 0 0 .293-.14.57.57 0 0 0 .101-.342c0-.082-.003-.146-.009-.191l-.827-4.809 3.49-3.403c.167-.167.25-.32.25-.462z" fill="currentColor"/></symbol><symbol id="unsort" viewBox="0 0 16 16"><path d="M12.433 2V.286a.28.28 0 0 0-.081-.206.283.283 0 0 0-.206-.08h-4a.28.28 0 0 0-.205.08.278.278 0 0 0-.081.206V2a.276.276 0 0 0 .286.286h4A.277.277 0 0 0 12.433 2zm1.713 13.715V14c0-.083-.026-.151-.08-.205s-.122-.08-.206-.08H8.146A.277.277 0 0 0 7.86 14v1.715a.277.277 0 0 0 .286.285h5.714c.084 0 .152-.026.206-.08s.08-.122.08-.205zm1.715-9.143V4.857a.28.28 0 0 0-.08-.205.28.28 0 0 0-.205-.08h-7.43a.28.28 0 0 0-.205.08.28.28 0 0 0-.08.205v1.715a.28.28 0 0 0 .08.205.28.28 0 0 0 .205.08h7.43a.28.28 0 0 0 .205-.08.279.279 0 0 0 .08-.205zm-5.143 4.572V9.429c0-.083-.026-.151-.08-.205s-.122-.08-.205-.08H8.146a.277.277 0 0 0-.286.285v1.715a.274.274 0 0 0 .286.285h2.286a.274.274 0 0 0 .286-.285z" fill="currentColor"/></symbol><symbol id="sort-alpha-desc" viewBox="0 0 16 16"><path d="M11.731 10.84c.023-.072.046-.158.066-.26a2.99 2.99 0 0 0 .031-.16l.027-.179h.035c0 .023.006.083.019.179l.106.42.644 1.945h-1.581l.653-1.945zm-4.714 2.017a.274.274 0 0 0-.081-.205.274.274 0 0 0-.206-.081H5.017V.286A.277.277 0 0 0 4.731 0H3.017a.275.275 0 0 0-.286.286v12.285H1.017c-.131 0-.22.06-.268.179-.047.113-.027.217.062.312l2.857 2.857a.302.302 0 0 0 .412.001l2.848-2.849a.335.335 0 0 0 .089-.214zm8.258 2.197h-.625l-2.053-5.911H11.15l-2.053 5.911h-.625V16h2.563v-.946h-.67l.42-1.286h2.169l.42 1.286h-.67V16h2.571v-.946zm-.794-10.278H13.4v1.062h-2.214c-.125 0-.214.003-.268.01l-.125.026v-.025l.098-.09c.09-.107.152-.185.188-.232L14.374.796V0H9.312v2.045h1.071V1.018h2.071a1.2 1.2 0 0 0 .269-.026c.018 0 .04-.002.066-.005a.552.552 0 0 1 .059-.004v.026l-.099.08a1.725 1.725 0 0 0-.188.241L9.267 6.054v.804h5.215V4.776h-.001z" fill="currentColor"/></symbol><symbol id="sort-alpha-asc" viewBox="0 0 16 16"><path d="M11.731 1.696c.023-.071.046-.158.066-.259.021-.102.031-.155.031-.161l.027-.179h.035c0 .024.006.084.019.179l.106.42.644 1.946h-1.581l.653-1.946zm-4.715 11.16c0-.083-.026-.151-.08-.205s-.122-.08-.205-.08H5.016V.285c0-.083-.026-.151-.08-.205S4.814 0 4.731 0H3.016c-.083 0-.151.026-.205.08s-.08.122-.08.205v12.286H1.016c-.131 0-.22.06-.268.179-.048.113-.026.217.062.312l2.857 2.856a.321.321 0 0 0 .207.082.296.296 0 0 0 .205-.081l2.849-2.848a.334.334 0 0 0 .088-.215zm7.465 1.063h-1.08v1.062h-2.215c-.125 0-.214.007-.268.019l-.125.018V15l.098-.099c.09-.107.152-.185.188-.232l3.295-4.731v-.795H9.312v2.045h1.071V10.16h2.071c.107 0 .197-.009.269-.026.018 0 .04-.002.066-.005a.552.552 0 0 1 .059-.004v.026l-.099.08a1.725 1.725 0 0 0-.188.241l-3.295 4.724V16h5.215v-2.081zm.795-8.009h-.625L12.598 0h-1.446L9.098 5.91h-.626v.946h2.563V5.91h-.67l.42-1.285h2.169l.42 1.285h-.67v.946h2.571l.001-.946z" fill="currentColor"/></symbol><symbol id="one-bar" viewBox="0 0 16 16"><path d="M14 3H2a2 2 0 0 0-2 2v6a2 2 0 0 0 2 2h12a2 2 0 0 0 2-2V5a2 2 0 0 0-2-2zm1 8a1 1 0 0 1-1 1H8V4h6a1 1 0 0 1 1 1v6z" fill="currentColor"/></symbol><symbol id="two-bars" viewBox="0 0 16 16"><path d="M14 3H2a2 2 0 0 0-2 2v6a2 2 0 0 0 2 2h12a2 2 0 0 0 2-2V5a2 2 0 0 0-2-2zm1 8a1 1 0 0 1-1 1H6V8h5V4h3a1 1 0 0 1 1 1v6z" fill="currentColor"/></symbol><symbol id="unlocked" viewBox="0 0 16 16"><path d="M3 8c-.277 0-.514.098-.708.292S2 8.723 2 9v6c0 .277.098.514.292.708S2.723 16 3 16h10c.277 0 .514-.098.708-.292S14 15.277 14 15V9c0-.277-.098-.514-.292-.708S13.277 8 13 8h-.333V4.667c0-1.285-.457-2.384-1.37-3.297S9.285 0 8 0 5.616.457 4.703 1.37s-1.37 2.012-1.37 3.297c0 .181.066.337.198.469s.288.197.469.197h.667c.181 0 .337-.065.469-.197s.197-.288.197-.469c0-.736.261-1.365.781-1.886C6.636 2.261 7.264 2 8 2s1.364.261 1.886.781c.521.521.781 1.149.781 1.886V8H3z" fill="currentColor"/></symbol><symbol id="locked" viewBox="0 0 16 16"><path d="M5.333 7.333v-2c0-.736.26-1.364.781-1.886a2.568 2.568 0 0 1 1.885-.781c.736 0 1.365.261 1.886.781.521.521.781 1.149.781 1.886v2H5.333zm8.667 1a.965.965 0 0 0-.292-.708.963.963 0 0 0-.709-.292h-.333v-2c0-1.278-.458-2.375-1.375-3.292C10.374 1.125 9.277.667 8 .667c-1.278 0-2.375.459-3.292 1.375-.917.916-1.375 2.013-1.375 3.291v2h-.334a.962.962 0 0 0-.708.292.965.965 0 0 0-.291.708v6c0 .277.097.514.291.707a.963.963 0 0 0 .708.293h10a.964.964 0 0 0 .709-.293.961.961 0 0 0 .291-.707l.001-6z" fill="currentColor"/></symbol><symbol id="union" viewBox="0 0 16 16"><path d="M12 1v7a4 4 0 0 1-8 .001v-7H1v7a7 7 0 0 0 14 0V1h-3z" fill="currentColor"/></symbol><symbol id="intersection" viewBox="0 0 16 16"><path d="M15 15V7.999a7 7 0 0 0-14 0V15h3V7.999a4 4 0 0 1 8 0V15h3z" fill="currentColor"/></symbol><symbol id="set-inactive" viewBox="0 0 16 16"><path fill="currentColor" d="M1 6.5h14v3H1z"/></symbol><symbol id="not" viewBox="0 0 16 16"><path d="M8 1a7 7 0 1 0 0 14A7 7 0 0 0 8 1zM3 8a5 5 0 0 1 5-5c1.019 0 1.964.308 2.754.832l-6.922 6.923A4.975 4.975 0 0 1 3 8zm5 5a4.979 4.979 0 0 1-2.754-.831l6.922-6.923C12.691 6.036 13 6.981 13 8a5 5 0 0 1-5 5z" fill="currentColor"/></symbol><symbol id="zoom-out" viewBox="0 0 16 16"><path fill="currentColor" d="M3.5 5.5h6v2h-6z"/><path d="M15.682 14.268l-3.938-3.938A6.468 6.468 0 0 0 13 6.5 6.5 6.5 0 1 0 6.5 13c1.434 0 2.756-.47 3.83-1.257l3.938 3.94 1.414-1.415zM2 6.5a4.5 4.5 0 1 1 9 0 4.5 4.5 0 0 1-9 0z" fill="currentColor"/></symbol></svg>
