<svg xmlns="http://www.w3.org/2000/svg"><symbol id="arrow-down" viewBox="0 0 16 16"><path d="M2.54 2.667L0 5.237l8 8.096 8-8.097-2.538-2.57L8 8.197l-5.46-5.53z" fill="currentColor"/></symbol><symbol id="arrow-left" viewBox="0 0 16 16"><path d="M13.333 2.54L10.763 0 2.668 8l8.097 8 2.57-2.538L7.803 8l5.53-5.46z" fill="currentColor"/></symbol><symbol id="cursor-default" viewBox="0 0 16 16"><path d="M8 8.727l3.272 5.82L8.8 16l-3.345-5.89-3.273 4.436V0L13.82 8.727H8z" fill="currentColor"/></symbol><symbol id="gear" viewBox="0 0 16 16"><path d="M8 10.893a2.892 2.892 0 0 1 0-5.787A2.887 2.887 0 0 1 10.88 8 2.885 2.885 0 0 1 8 10.893zm5.797-4.555l-.52-1.256 1.052-2.067-1.29-1.29-2.115 1L9.67 2.21 9.03.26 8.95 0H7.128l-.79 2.202-1.255.518-2.07-1.048L1.727 2.96l.998 2.116-.518 1.255L0 7.05v1.82l2.204.79.518 1.254-.927 1.83-.122.24L2.96 14.27l2.118-.997 1.254.52.637 1.948.08.26h1.82l.79-2.205 1.252-.52 2.072 1.052 1.288-1.287-.998-2.114.516-1.256L16 8.95V7.13l-2.203-.792z" fill="currentColor"/></symbol><symbol id="sort-asc" viewBox="0 0 16 16"><path d="M10.718 2V.286a.282.282 0 0 0-.08-.206.28.28 0 0 0-.204-.08H8.146a.277.277 0 0 0-.286.286V2a.277.277 0 0 0 .286.286h2.286A.276.276 0 0 0 10.718 2zM6.432 12.857a.285.285 0 0 0-.08-.207.283.283 0 0 0-.206-.08H4.432V.285a.28.28 0 0 0-.08-.205.275.275 0 0 0-.206-.08H2.432a.265.265 0 0 0-.204.08.277.277 0 0 0-.08.206v12.286H.432c-.13 0-.22.06-.268.178-.048.113-.027.217.062.312l2.857 2.856a.297.297 0 0 0 .41 0l2.85-2.848c.058-.07.088-.142.088-.213zm6.002-6.285V4.857a.277.277 0 0 0-.287-.286h-4a.28.28 0 0 0-.205.08.282.282 0 0 0-.082.207V6.57a.276.276 0 0 0 .286.287h4a.28.28 0 0 0 .288-.285zm1.712 4.573V9.43a.273.273 0 0 0-.287-.285H8.145a.273.273 0 0 0-.205.08.273.273 0 0 0-.08.205v1.715c0 .082.027.15.08.205a.28.28 0 0 0 .206.08h5.713a.285.285 0 0 0 .206-.08.28.28 0 0 0 .08-.205zm1.713 4.57V14a.274.274 0 0 0-.285-.285h-7.43A.277.277 0 0 0 7.86 14v1.715a.277.277 0 0 0 .286.285h7.43a.273.273 0 0 0 .284-.285z" fill="currentColor"/></symbol><symbol id="sort-desc" viewBox="0 0 16 16"><path d="M6.432 12.857a.28.28 0 0 0-.08-.206.28.28 0 0 0-.206-.08H4.432V.286A.276.276 0 0 0 4.146 0H2.432c-.084 0-.152.026-.206.08s-.08.12-.08.205V12.57H.43c-.13 0-.22.06-.267.18-.047.113-.027.217.062.312l2.857 2.857c.067.053.135.08.207.08a.3.3 0 0 0 .204-.08l2.848-2.85c.06-.07.09-.142.09-.213zM15.862 2V.286A.28.28 0 0 0 15.78.08a.277.277 0 0 0-.205-.08h-7.43a.276.276 0 0 0-.284.287V2a.28.28 0 0 0 .08.206.28.28 0 0 0 .206.08h7.43a.28.28 0 0 0 .204-.08.28.28 0 0 0 .08-.206zm-1.715 4.572V4.857a.277.277 0 0 0-.286-.287H8.146a.276.276 0 0 0-.285.287V6.57c0 .084.027.152.08.206.054.054.123.08.206.08h5.715a.277.277 0 0 0 .287-.284zm-1.714 4.572V9.43a.277.277 0 0 0-.286-.287h-4a.276.276 0 0 0-.285.286v1.714c0 .083.026.15.08.205a.28.28 0 0 0 .205.08h4a.28.28 0 0 0 .205-.08.28.28 0 0 0 .08-.206zm-1.715 4.57V14a.277.277 0 0 0-.285-.286H8.146A.276.276 0 0 0 7.86 14v1.715a.275.275 0 0 0 .286.285h2.287c.083 0 .15-.026.205-.08s.08-.12.08-.205z" fill="currentColor"/></symbol><symbol id="star-outline" viewBox="0 0 16 16"><path d="M11.625 13.765L8 11.852l-3.635 1.913.702-4.048L2.125 6.86l4.058-.596L8 2.592l1.817 3.673 4.058.596-2.942 2.857.692 4.048zM16 6.283c0-.236-.18-.384-.538-.44l-4.827-.703L8.47.765C8.35.502 8.193.37 8 .37s-.35.132-.47.395L5.364 5.14.54 5.842c-.36.057-.54.205-.54.44 0 .136.08.29.24.463l3.5 3.403-.827 4.81c-.013.09-.02.152-.02.19 0 .135.034.25.1.342.068.094.17.14.304.14a.814.814 0 0 0 .385-.115L8 13.245l4.317 2.27a.778.778 0 0 0 .385.115c.263 0 .394-.16.394-.48 0-.083-.003-.147-.01-.192l-.826-4.81 3.49-3.402c.167-.168.25-.32.25-.463z" fill="currentColor"/></symbol><symbol id="star" viewBox="0 0 16 16"><path d="M16 6.283c0-.236-.18-.384-.538-.44l-4.827-.703L8.47.765C8.35.502 8.193.37 8 .37s-.35.132-.47.395L5.364 5.14.54 5.842c-.36.057-.54.205-.54.44 0 .136.08.29.24.463l3.5 3.403-.827 4.81c-.013.09-.02.152-.02.19 0 .135.034.25.1.342.068.094.17.14.304.14a.814.814 0 0 0 .385-.115L8 13.245l4.317 2.27a.778.778 0 0 0 .385.115.337.337 0 0 0 .293-.14.57.57 0 0 0 .1-.342c0-.082-.002-.146-.008-.19l-.827-4.81 3.49-3.403c.167-.167.25-.32.25-.462z" fill="currentColor"/></symbol><symbol id="unsort" viewBox="0 0 16 16"><path d="M12.433 2V.286a.28.28 0 0 0-.08-.206.283.283 0 0 0-.207-.08h-4a.28.28 0 0 0-.205.08.278.278 0 0 0-.08.206V2a.276.276 0 0 0 .286.286h4A.277.277 0 0 0 12.433 2zm1.713 13.715V14a.273.273 0 0 0-.286-.285H8.146A.277.277 0 0 0 7.86 14v1.715c0 .083.027.15.08.205s.123.08.206.08h5.714c.084 0 .152-.026.206-.08s.08-.122.08-.205zm1.715-9.143V4.857a.28.28 0 0 0-.08-.205.28.28 0 0 0-.204-.08h-7.43a.28.28 0 0 0-.205.08.28.28 0 0 0-.08.205v1.715c0 .083.028.15.08.205a.28.28 0 0 0 .206.08h7.43a.28.28 0 0 0 .205-.08.28.28 0 0 0 .08-.205zm-5.142 4.572V9.43c0-.084-.026-.152-.08-.206s-.122-.08-.205-.08H8.146a.277.277 0 0 0-.286.285v1.714a.274.274 0 0 0 .286.285h2.286a.274.274 0 0 0 .286-.285z" fill="currentColor"/></symbol><symbol id="sort-alpha-desc" viewBox="0 0 16 16"><path d="M11.73 10.84c.024-.072.047-.158.067-.26.02-.102.03-.154.03-.16l.028-.18h.035c0 .024.006.084.02.18l.105.42.644 1.945h-1.582l.653-1.945zm-4.713 2.017a.274.274 0 0 0-.08-.205.274.274 0 0 0-.207-.08H5.017V.285c0-.084-.027-.152-.08-.206S4.813 0 4.73 0H3.018a.275.275 0 0 0-.286.286V12.57H1.018c-.13 0-.22.06-.268.18-.048.113-.028.217.06.312L3.67 15.92c.066.053.135.08.206.08a.302.302 0 0 0 .206-.08l2.848-2.85c.06-.07.09-.14.09-.213zm8.258 2.197h-.625l-2.053-5.91H11.15l-2.053 5.91h-.625V16h2.563v-.946h-.67l.42-1.286h2.17l.42 1.286h-.67V16h2.57v-.946zM14.48 4.776H13.4v1.062h-2.214a2.39 2.39 0 0 0-.268.01l-.125.026V5.85l.098-.09a6.82 6.82 0 0 0 .19-.233l3.294-4.73V0H9.312v2.045h1.07V1.018h2.072a1.2 1.2 0 0 0 .27-.026c.017 0 .04-.002.065-.005a.552.552 0 0 1 .058-.004v.026l-.1.08a1.725 1.725 0 0 0-.187.24L9.268 6.054v.804h5.215V4.776z" fill="currentColor"/></symbol><symbol id="sort-alpha-asc" viewBox="0 0 16 16"><path d="M11.73 1.696c.024-.07.047-.158.067-.26.02-.1.03-.154.03-.16l.028-.18h.035c0 .025.006.085.02.18l.105.42.644 1.946h-1.582l.653-1.946zm-4.714 11.16a.273.273 0 0 0-.285-.285H5.016V.286A.273.273 0 0 0 4.73 0H3.016a.273.273 0 0 0-.285.285V12.57H1.017c-.13 0-.22.06-.268.18-.048.113-.026.217.062.312l2.857 2.856a.32.32 0 0 0 .207.082.296.296 0 0 0 .205-.08l2.848-2.85a.334.334 0 0 0 .088-.214zm7.465 1.063H13.4v1.06h-2.214c-.125 0-.214.008-.268.02l-.125.018V15l.098-.1a6.82 6.82 0 0 0 .19-.23l3.294-4.732v-.795H9.312v2.045h1.07V10.16h2.072c.107 0 .197-.01.27-.026.017 0 .04-.002.065-.005a.552.552 0 0 1 .058-.005v.026l-.1.08a1.725 1.725 0 0 0-.187.242l-3.294 4.724V16h5.215v-2.08zm.796-8.01h-.625L12.6 0h-1.446L9.098 5.91h-.626v.946h2.563V5.91h-.67l.42-1.285h2.17l.42 1.285h-.67v.946h2.57V5.91z" fill="currentColor"/></symbol><symbol id="one-bar" viewBox="0 0 16 16"><path d="M14 3H2a2 2 0 0 0-2 2v6a2 2 0 0 0 2 2h12a2 2 0 0 0 2-2V5a2 2 0 0 0-2-2zm1 8a1 1 0 0 1-1 1H8V4h6a1 1 0 0 1 1 1v6z" fill="currentColor"/></symbol><symbol id="two-bars" viewBox="0 0 16 16"><path d="M14 3H2a2 2 0 0 0-2 2v6a2 2 0 0 0 2 2h12a2 2 0 0 0 2-2V5a2 2 0 0 0-2-2zm1 8a1 1 0 0 1-1 1H6V8h5V4h3a1 1 0 0 1 1 1v6z" fill="currentColor"/></symbol><symbol id="unlocked" viewBox="0 0 16 16"><path d="M3 8c-.277 0-.514.098-.708.292S2 8.722 2 9v6c0 .277.098.514.292.708S2.722 16 3 16h10c.277 0 .514-.098.708-.292S14 15.278 14 15V9c0-.277-.098-.514-.292-.708S13.278 8 13 8h-.333V4.667c0-1.285-.457-2.384-1.37-3.297S9.285 0 8 0 5.616.457 4.703 1.37s-1.37 2.012-1.37 3.297c0 .18.066.337.198.47s.29.196.47.196h.667c.18 0 .337-.065.47-.197s.196-.288.196-.47c0-.735.26-1.364.78-1.885C6.637 2.26 7.264 2 8 2s1.364.26 1.886.78c.52.522.78 1.15.78 1.887V8H3z" fill="currentColor"/></symbol><symbol id="locked" viewBox="0 0 16 16"><path d="M5.333 7.333v-2c0-.736.26-1.364.78-1.886.522-.52 1.15-.78 1.886-.78.735 0 1.364.26 1.885.78.52.52.78 1.15.78 1.886v2H5.334zm8.667 1a.965.965 0 0 0-.292-.708.963.963 0 0 0-.71-.292h-.332v-2c0-1.278-.458-2.375-1.375-3.292C10.375 1.126 9.278.668 8 .668c-1.278 0-2.375.46-3.292 1.375-.917.916-1.375 2.013-1.375 3.29v2H3a.962.962 0 0 0-.71.293.965.965 0 0 0-.29.708v6a.96.96 0 0 0 .29.707c.195.195.432.293.71.293h10a.964.964 0 0 0 .708-.293.96.96 0 0 0 .29-.707l.002-6z" fill="currentColor"/></symbol><symbol id="union" viewBox="0 0 16 16"><path d="M12 1v7a4 4 0 0 1-8 0V1H1v7a7 7 0 0 0 14 0V1h-3z" fill="currentColor"/></symbol><symbol id="intersection" viewBox="0 0 16 16"><path d="M15 15V8A7 7 0 0 0 1 8v7h3V8a4 4 0 0 1 8 0v7h3z" fill="currentColor"/></symbol><symbol id="set-inactive" viewBox="0 0 16 16"><path fill="currentColor" d="M1 6.5h14v3H1z"/></symbol><symbol id="not" viewBox="0 0 16 16"><path d="M8 1a7 7 0 1 0 0 14A7 7 0 0 0 8 1zM3 8a5 5 0 0 1 5-5c1.02 0 1.964.308 2.754.832l-6.922 6.923A4.975 4.975 0 0 1 3 8zm5 5a4.98 4.98 0 0 1-2.754-.83l6.922-6.924C12.69 6.036 13 6.98 13 8a5 5 0 0 1-5 5z" fill="currentColor"/></symbol><symbol id="zoom-out" viewBox="0 0 16 16"><path fill="currentColor" d="M3.5 5.5h6v2h-6z"/><path d="M15.682 14.268l-3.938-3.938A6.468 6.468 0 0 0 13 6.5 6.5 6.5 0 1 0 6.5 13c1.434 0 2.756-.47 3.83-1.257l3.938 3.94 1.414-1.415zM2 6.5a4.5 4.5 0 1 1 9 0 4.5 4.5 0 0 1-9 0z" fill="currentColor"/></symbol></svg>
