<svg xmlns="http://www.w3.org/2000/svg">
  <symbol id="arrow-left" viewBox="0 0 16 16">
    <path
      d="M13.333,2.539L10.764,0L2.667,8l8.097,8l2.569-2.538L7.804,8L13.333,2.539z"
      fill="currentColor"/>
  </symbol>
  <symbol id="cursor-default" viewBox="0 0 16 16">
    <path
      d="M8,8.727l3.272,5.819L8.8,16l-3.345-5.891l-3.273,4.437V0l11.637,8.727H8z"
      fill="currentColor"/>
  </symbol>
  <symbol id="gear" viewBox="0 0 16 16">
    <path
      d="M7.999,10.893c-1.597,0-2.892-1.295-2.892-2.893c0-1.596,1.295-2.894,2.892-2.894S10.882,6.404,10.882,8
  C10.882,9.598,9.596,10.893,7.999,10.893z M13.797,6.338l-0.521-1.256l1.053-2.067l-1.289-1.289l-2.115,0.999L9.669,2.21
  L9.031,0.259L8.95,0H7.128L6.339,2.202L5.083,2.72L3.014,1.672L1.726,2.96l0.998,2.116L2.206,6.331L0,7.05v1.821l2.204,0.79
  l0.518,1.253l-0.927,1.83l-0.122,0.239l1.287,1.287l2.118-0.997l1.254,0.519l0.637,1.949L7.049,16H8.87l0.789-2.205l1.253-0.519
  l2.072,1.051l1.288-1.287l-0.998-2.114L13.79,9.67L16,8.951V7.13L13.797,6.338L13.797,6.338z"
      fill="currentColor"/>
  </symbol>
  <symbol id="sort-asc" viewBox="0 0 16 16">
    <path
      d="M10.718,2V0.286c0-0.083-0.026-0.152-0.079-0.206C10.584,0.026,10.516,0,10.434,0H8.146
  C8.063,0,7.995,0.027,7.941,0.081C7.887,0.135,7.86,0.203,7.86,0.286V2c0,0.083,0.027,0.151,0.081,0.205
  c0.054,0.054,0.122,0.081,0.205,0.081h2.286c0.084,0,0.151-0.027,0.205-0.081C10.691,2.151,10.718,2.083,10.718,2z M6.432,12.857
  c0-0.084-0.027-0.152-0.08-0.207c-0.054-0.053-0.123-0.08-0.206-0.08H4.432V0.285c0-0.083-0.027-0.151-0.08-0.205
  C4.298,0.025,4.229,0,4.146,0H2.432C2.349,0,2.28,0.025,2.228,0.081C2.174,0.135,2.147,0.203,2.147,0.286v12.286H0.433
  c-0.131,0-0.221,0.059-0.268,0.178c-0.048,0.113-0.027,0.217,0.062,0.312l2.857,2.856C3.15,15.973,3.218,16,3.29,16
  c0.077,0,0.145-0.027,0.205-0.081l2.848-2.849C6.402,13,6.432,12.928,6.432,12.857L6.432,12.857z M12.434,6.572V4.857
  c0-0.083-0.027-0.152-0.082-0.206c-0.054-0.053-0.121-0.08-0.205-0.08h-4c-0.083,0-0.151,0.027-0.205,0.08
  C7.888,4.706,7.86,4.774,7.86,4.857v1.714c0,0.083,0.027,0.152,0.081,0.205C7.995,6.83,8.063,6.857,8.146,6.857h4
  c0.082,0,0.15-0.027,0.205-0.081C12.404,6.724,12.434,6.655,12.434,6.572z M14.146,11.145V9.43c0-0.084-0.026-0.152-0.08-0.205
  c-0.055-0.055-0.123-0.08-0.207-0.08H8.146c-0.083,0-0.151,0.025-0.205,0.08C7.887,9.277,7.86,9.346,7.86,9.43v1.715
  c0,0.082,0.027,0.15,0.081,0.205c0.054,0.053,0.122,0.08,0.205,0.08h5.713c0.084,0,0.152-0.027,0.207-0.08
  C14.12,11.295,14.146,11.227,14.146,11.145z M15.859,15.715V14c0-0.083-0.025-0.15-0.08-0.205c-0.053-0.054-0.121-0.08-0.204-0.08
  H8.146c-0.083,0-0.151,0.026-0.205,0.08C7.887,13.85,7.86,13.917,7.86,14v1.715c0,0.083,0.027,0.151,0.081,0.205
  C7.995,15.975,8.063,16,8.146,16h7.429c0.083,0,0.151-0.025,0.204-0.08C15.834,15.866,15.859,15.798,15.859,15.715z"
      fill="currentColor"/>
  </symbol>
  <symbol id="sort-desc" viewBox="0 0 16 16">
    <path
      d="M6.432,12.857c0-0.084-0.027-0.152-0.08-0.206c-0.054-0.054-0.123-0.08-0.206-0.08H4.432V0.285
  c0-0.084-0.027-0.151-0.081-0.205S4.229,0,4.146,0H2.432C2.348,0,2.28,0.026,2.226,0.08S2.146,0.201,2.146,0.285v12.286H0.431
  c-0.131,0-0.22,0.06-0.268,0.179c-0.047,0.113-0.027,0.217,0.062,0.312l2.857,2.857C3.149,15.973,3.217,16,3.289,16
  c0.077,0,0.145-0.027,0.205-0.08l2.848-2.849C6.402,13,6.432,12.928,6.432,12.857L6.432,12.857z M15.861,2V0.286
  c0-0.083-0.027-0.152-0.081-0.206C15.728,0.027,15.658,0,15.575,0H8.146C8.063,0,7.994,0.027,7.941,0.081
  c-0.054,0.053-0.08,0.122-0.08,0.206V2c0,0.083,0.026,0.152,0.08,0.206c0.053,0.053,0.122,0.08,0.205,0.08h7.429
  c0.083,0,0.152-0.027,0.205-0.08C15.834,2.152,15.861,2.083,15.861,2z M14.147,6.572V4.857c0-0.083-0.027-0.152-0.081-0.206
  c-0.054-0.054-0.122-0.081-0.205-0.081H8.146c-0.083,0-0.152,0.027-0.205,0.081c-0.054,0.053-0.08,0.122-0.08,0.206v1.714
  c0,0.083,0.026,0.151,0.08,0.205c0.053,0.054,0.122,0.08,0.205,0.08h5.715c0.083,0,0.151-0.026,0.205-0.08
  S14.147,6.655,14.147,6.572z M12.433,11.144V9.429c0-0.083-0.027-0.151-0.081-0.205s-0.122-0.081-0.205-0.081h-4
  c-0.083,0-0.152,0.027-0.205,0.081c-0.054,0.054-0.08,0.122-0.08,0.205v1.715c0,0.083,0.026,0.151,0.08,0.205
  c0.053,0.053,0.122,0.08,0.205,0.08h4c0.083,0,0.151-0.027,0.205-0.08C12.405,11.295,12.433,11.227,12.433,11.144z M10.718,15.715
  V14c0-0.083-0.026-0.151-0.08-0.205s-0.122-0.081-0.205-0.081H8.146c-0.083,0-0.152,0.027-0.205,0.081
  c-0.054,0.054-0.08,0.122-0.08,0.205v1.715c0,0.084,0.026,0.151,0.08,0.205C7.994,15.974,8.063,16,8.146,16h2.287
  c0.083,0,0.151-0.026,0.205-0.08S10.718,15.799,10.718,15.715z"
      fill="currentColor"/>
  </symbol>
  <symbol id="star-outline" viewBox="0 0 16 16">
    <path
      d="M11.625,13.765L8,11.852l-3.635,1.913l0.702-4.048L2.125,6.86l4.058-0.596L8,2.592l1.817,3.673l4.058,0.596
  l-2.942,2.856L11.625,13.765z M16,6.283c0-0.236-0.18-0.384-0.538-0.441L10.635,5.14L8.471,0.765C8.349,0.502,8.192,0.37,8,0.37
  S7.65,0.502,7.529,0.765L5.365,5.14L0.539,5.842C0.18,5.899,0,6.047,0,6.283c0,0.135,0.08,0.289,0.24,0.462l3.5,3.403l-0.827,4.809
  c-0.013,0.09-0.02,0.153-0.02,0.191c0,0.135,0.034,0.249,0.101,0.342c0.067,0.094,0.168,0.14,0.303,0.14
  c0.116,0,0.244-0.038,0.385-0.115L8,13.245l4.317,2.27c0.135,0.077,0.263,0.115,0.385,0.115c0.263,0,0.394-0.16,0.394-0.481
  c0-0.082-0.003-0.146-0.009-0.191l-0.827-4.809l3.49-3.403C15.917,6.578,16,6.425,16,6.283L16,6.283z"
      fill="currentColor"/>
  </symbol>
  <symbol id="star" viewBox="0 0 16 16">
    <path
      d="M16,6.283c0-0.236-0.18-0.384-0.538-0.441L10.635,5.14L8.471,0.765C8.349,0.502,8.192,0.37,8,0.37
  S7.65,0.502,7.529,0.765L5.365,5.14L0.539,5.842C0.18,5.899,0,6.047,0,6.283c0,0.135,0.08,0.289,0.24,0.462l3.5,3.403l-0.827,4.809
  c-0.013,0.09-0.02,0.153-0.02,0.191c0,0.135,0.034,0.249,0.101,0.342c0.067,0.094,0.168,0.14,0.303,0.14
  c0.116,0,0.244-0.038,0.385-0.115L8,13.245l4.317,2.27c0.135,0.077,0.263,0.115,0.385,0.115c0.128,0,0.226-0.046,0.293-0.14
  c0.067-0.093,0.101-0.207,0.101-0.342c0-0.082-0.003-0.146-0.009-0.191l-0.827-4.809l3.49-3.403C15.917,6.578,16,6.425,16,6.283
  L16,6.283z"
      fill="currentColor"/>
  </symbol>
  <symbol id="unsort" viewBox="0 0 16 16">
    <path
      d="M12.433,2V0.286c0-0.083-0.027-0.152-0.081-0.206C12.298,0.027,12.229,0,12.146,0h-4
  C8.063,0,7.995,0.027,7.941,0.08C7.887,0.134,7.86,0.202,7.86,0.286V2c0,0.083,0.027,0.152,0.081,0.205
  c0.054,0.054,0.122,0.081,0.205,0.081h4c0.083,0,0.151-0.027,0.205-0.081C12.405,2.152,12.433,2.083,12.433,2z M14.146,15.715V14
  c0-0.083-0.026-0.151-0.08-0.205s-0.122-0.08-0.206-0.08H8.146c-0.083,0-0.151,0.026-0.205,0.08S7.86,13.917,7.86,14v1.715
  c0,0.083,0.027,0.151,0.081,0.205S8.063,16,8.146,16h5.714c0.084,0,0.152-0.026,0.206-0.08S14.146,15.798,14.146,15.715z
   M15.861,6.572V4.857c0-0.083-0.027-0.151-0.08-0.205c-0.055-0.054-0.123-0.08-0.205-0.08h-7.43c-0.082,0-0.15,0.026-0.205,0.08
  c-0.053,0.054-0.08,0.122-0.08,0.205v1.715c0,0.083,0.027,0.151,0.08,0.205c0.055,0.054,0.123,0.08,0.205,0.08h7.43
  c0.082,0,0.15-0.026,0.205-0.08C15.834,6.724,15.861,6.655,15.861,6.572z M10.718,11.144V9.429c0-0.083-0.026-0.151-0.08-0.205
  s-0.122-0.08-0.205-0.08H8.146c-0.083,0-0.151,0.026-0.205,0.08S7.86,9.346,7.86,9.429v1.715c0,0.084,0.027,0.152,0.081,0.205
  c0.054,0.055,0.122,0.08,0.205,0.08h2.286c0.083,0,0.151-0.025,0.205-0.08C10.691,11.296,10.718,11.228,10.718,11.144z"
      fill="currentColor"/>
  </symbol>
</svg>
