<svg xmlns="http://www.w3.org/2000/svg">
  <symbol id="arrow-down" viewBox="0 0 16 16">
    <path
      d="M2.539,2.667L0,5.236l8,8.097l8-8.097l-2.538-2.569L8,8.196L2.539,2.667z"
      fill="currentColor"/>
  </symbol>
  <symbol id="arrow-left" viewBox="0 0 16 16">
    <path
      d="M13.333,2.539L10.764,0L2.667,8l8.097,8l2.569-2.538L7.804,8L13.333,2.539z"
      fill="currentColor"/>
  </symbol>
  <symbol id="cursor-default" viewBox="0 0 16 16">
    <path
      d="M8,8.727l3.272,5.819L8.8,16l-3.345-5.891l-3.273,4.437V0l11.637,8.727H8z"
      fill="currentColor"/>
  </symbol>
  <symbol id="gear" viewBox="0 0 16 16">
    <path
      d="M7.999,10.893c-1.597,0-2.892-1.295-2.892-2.893c0-1.596,1.295-2.894,2.892-2.894S10.882,6.404,10.882,8
        C10.882,9.598,9.596,10.893,7.999,10.893z M13.797,6.338l-0.521-1.256l1.053-2.067l-1.289-1.289l-2.115,0.999L9.669,2.21
        L9.031,0.259L8.95,0H7.128L6.339,2.202L5.083,2.72L3.014,1.672L1.726,2.96l0.998,2.116L2.206,6.331L0,7.05v1.821l2.204,0.79
        l0.518,1.253l-0.927,1.83l-0.122,0.239l1.287,1.287l2.118-0.997l1.254,0.519l0.637,1.949L7.049,16H8.87l0.789-2.205l1.253-0.519
        l2.072,1.051l1.288-1.287l-0.998-2.114L13.79,9.67L16,8.951V7.13L13.797,6.338L13.797,6.338z"
      fill="currentColor"/>
  </symbol>
  <symbol id="sort-asc" viewBox="0 0 16 16">
    <path
      d="M10.718,2V0.286c0-0.083-0.026-0.152-0.079-0.206C10.584,0.026,10.516,0,10.434,0H8.146
        C8.063,0,7.995,0.027,7.941,0.081C7.887,0.135,7.86,0.203,7.86,0.286V2c0,0.083,0.027,0.151,0.081,0.205
        c0.054,0.054,0.122,0.081,0.205,0.081h2.286c0.084,0,0.151-0.027,0.205-0.081C10.691,2.151,10.718,2.083,10.718,2z M6.432,12.857
        c0-0.084-0.027-0.152-0.08-0.207c-0.054-0.053-0.123-0.08-0.206-0.08H4.432V0.285c0-0.083-0.027-0.151-0.08-0.205
        C4.298,0.025,4.229,0,4.146,0H2.432C2.349,0,2.28,0.025,2.228,0.081C2.174,0.135,2.147,0.203,2.147,0.286v12.286H0.433
        c-0.131,0-0.221,0.059-0.268,0.178c-0.048,0.113-0.027,0.217,0.062,0.312l2.857,2.856C3.15,15.973,3.218,16,3.29,16
        c0.077,0,0.145-0.027,0.205-0.081l2.848-2.849C6.402,13,6.432,12.928,6.432,12.857L6.432,12.857z M12.434,6.572V4.857
        c0-0.083-0.027-0.152-0.082-0.206c-0.054-0.053-0.121-0.08-0.205-0.08h-4c-0.083,0-0.151,0.027-0.205,0.08
        C7.888,4.706,7.86,4.774,7.86,4.857v1.714c0,0.083,0.027,0.152,0.081,0.205C7.995,6.83,8.063,6.857,8.146,6.857h4
        c0.082,0,0.15-0.027,0.205-0.081C12.404,6.724,12.434,6.655,12.434,6.572z M14.146,11.145V9.43c0-0.084-0.026-0.152-0.08-0.205
        c-0.055-0.055-0.123-0.08-0.207-0.08H8.146c-0.083,0-0.151,0.025-0.205,0.08C7.887,9.277,7.86,9.346,7.86,9.43v1.715
        c0,0.082,0.027,0.15,0.081,0.205c0.054,0.053,0.122,0.08,0.205,0.08h5.713c0.084,0,0.152-0.027,0.207-0.08
        C14.12,11.295,14.146,11.227,14.146,11.145z M15.859,15.715V14c0-0.083-0.025-0.15-0.08-0.205c-0.053-0.054-0.121-0.08-0.204-0.08
        H8.146c-0.083,0-0.151,0.026-0.205,0.08C7.887,13.85,7.86,13.917,7.86,14v1.715c0,0.083,0.027,0.151,0.081,0.205
        C7.995,15.975,8.063,16,8.146,16h7.429c0.083,0,0.151-0.025,0.204-0.08C15.834,15.866,15.859,15.798,15.859,15.715z"
      fill="currentColor"/>
  </symbol>
  <symbol id="sort-desc" viewBox="0 0 16 16">
    <path
      d="M6.432,12.857c0-0.084-0.027-0.152-0.08-0.206c-0.054-0.054-0.123-0.08-0.206-0.08H4.432V0.285
        c0-0.084-0.027-0.151-0.081-0.205S4.229,0,4.146,0H2.432C2.348,0,2.28,0.026,2.226,0.08S2.146,0.201,2.146,0.285v12.286H0.431
        c-0.131,0-0.22,0.06-0.268,0.179c-0.047,0.113-0.027,0.217,0.062,0.312l2.857,2.857C3.149,15.973,3.217,16,3.289,16
        c0.077,0,0.145-0.027,0.205-0.08l2.848-2.849C6.402,13,6.432,12.928,6.432,12.857L6.432,12.857z M15.861,2V0.286
        c0-0.083-0.027-0.152-0.081-0.206C15.728,0.027,15.658,0,15.575,0H8.146C8.063,0,7.994,0.027,7.941,0.081
        c-0.054,0.053-0.08,0.122-0.08,0.206V2c0,0.083,0.026,0.152,0.08,0.206c0.053,0.053,0.122,0.08,0.205,0.08h7.429
        c0.083,0,0.152-0.027,0.205-0.08C15.834,2.152,15.861,2.083,15.861,2z M14.147,6.572V4.857c0-0.083-0.027-0.152-0.081-0.206
        c-0.054-0.054-0.122-0.081-0.205-0.081H8.146c-0.083,0-0.152,0.027-0.205,0.081c-0.054,0.053-0.08,0.122-0.08,0.206v1.714
        c0,0.083,0.026,0.151,0.08,0.205c0.053,0.054,0.122,0.08,0.205,0.08h5.715c0.083,0,0.151-0.026,0.205-0.08
        S14.147,6.655,14.147,6.572z M12.433,11.144V9.429c0-0.083-0.027-0.151-0.081-0.205s-0.122-0.081-0.205-0.081h-4
        c-0.083,0-0.152,0.027-0.205,0.081c-0.054,0.054-0.08,0.122-0.08,0.205v1.715c0,0.083,0.026,0.151,0.08,0.205
        c0.053,0.053,0.122,0.08,0.205,0.08h4c0.083,0,0.151-0.027,0.205-0.08C12.405,11.295,12.433,11.227,12.433,11.144z M10.718,15.715
        V14c0-0.083-0.026-0.151-0.08-0.205s-0.122-0.081-0.205-0.081H8.146c-0.083,0-0.152,0.027-0.205,0.081
        c-0.054,0.054-0.08,0.122-0.08,0.205v1.715c0,0.084,0.026,0.151,0.08,0.205C7.994,15.974,8.063,16,8.146,16h2.287
        c0.083,0,0.151-0.026,0.205-0.08S10.718,15.799,10.718,15.715z"
      fill="currentColor"/>
  </symbol>
  <symbol id="star-outline" viewBox="0 0 16 16">
    <path
      d="M11.625,13.765L8,11.852l-3.635,1.913l0.702-4.048L2.125,6.86l4.058-0.596L8,2.592l1.817,3.673l4.058,0.596
        l-2.942,2.856L11.625,13.765z M16,6.283c0-0.236-0.18-0.384-0.538-0.441L10.635,5.14L8.471,0.765C8.349,0.502,8.192,0.37,8,0.37
        S7.65,0.502,7.529,0.765L5.365,5.14L0.539,5.842C0.18,5.899,0,6.047,0,6.283c0,0.135,0.08,0.289,0.24,0.462l3.5,3.403l-0.827,4.809
        c-0.013,0.09-0.02,0.153-0.02,0.191c0,0.135,0.034,0.249,0.101,0.342c0.067,0.094,0.168,0.14,0.303,0.14
        c0.116,0,0.244-0.038,0.385-0.115L8,13.245l4.317,2.27c0.135,0.077,0.263,0.115,0.385,0.115c0.263,0,0.394-0.16,0.394-0.481
        c0-0.082-0.003-0.146-0.009-0.191l-0.827-4.809l3.49-3.403C15.917,6.578,16,6.425,16,6.283L16,6.283z"
      fill="currentColor"/>
  </symbol>
  <symbol id="star" viewBox="0 0 16 16">
    <path
      d="M16,6.283c0-0.236-0.18-0.384-0.538-0.441L10.635,5.14L8.471,0.765C8.349,0.502,8.192,0.37,8,0.37
        S7.65,0.502,7.529,0.765L5.365,5.14L0.539,5.842C0.18,5.899,0,6.047,0,6.283c0,0.135,0.08,0.289,0.24,0.462l3.5,3.403l-0.827,4.809
        c-0.013,0.09-0.02,0.153-0.02,0.191c0,0.135,0.034,0.249,0.101,0.342c0.067,0.094,0.168,0.14,0.303,0.14
        c0.116,0,0.244-0.038,0.385-0.115L8,13.245l4.317,2.27c0.135,0.077,0.263,0.115,0.385,0.115c0.128,0,0.226-0.046,0.293-0.14
        c0.067-0.093,0.101-0.207,0.101-0.342c0-0.082-0.003-0.146-0.009-0.191l-0.827-4.809l3.49-3.403C15.917,6.578,16,6.425,16,6.283
        L16,6.283z"
      fill="currentColor"/>
  </symbol>
  <symbol id="unsort" viewBox="0 0 16 16">
    <path
      d="M12.433,2V0.286c0-0.083-0.027-0.152-0.081-0.206C12.298,0.027,12.229,0,12.146,0h-4
        C8.063,0,7.995,0.027,7.941,0.08C7.887,0.134,7.86,0.202,7.86,0.286V2c0,0.083,0.027,0.152,0.081,0.205
        c0.054,0.054,0.122,0.081,0.205,0.081h4c0.083,0,0.151-0.027,0.205-0.081C12.405,2.152,12.433,2.083,12.433,2z M14.146,15.715V14
        c0-0.083-0.026-0.151-0.08-0.205s-0.122-0.08-0.206-0.08H8.146c-0.083,0-0.151,0.026-0.205,0.08S7.86,13.917,7.86,14v1.715
        c0,0.083,0.027,0.151,0.081,0.205S8.063,16,8.146,16h5.714c0.084,0,0.152-0.026,0.206-0.08S14.146,15.798,14.146,15.715z
         M15.861,6.572V4.857c0-0.083-0.027-0.151-0.08-0.205c-0.055-0.054-0.123-0.08-0.205-0.08h-7.43c-0.082,0-0.15,0.026-0.205,0.08
        c-0.053,0.054-0.08,0.122-0.08,0.205v1.715c0,0.083,0.027,0.151,0.08,0.205c0.055,0.054,0.123,0.08,0.205,0.08h7.43
        c0.082,0,0.15-0.026,0.205-0.08C15.834,6.724,15.861,6.655,15.861,6.572z M10.718,11.144V9.429c0-0.083-0.026-0.151-0.08-0.205
        s-0.122-0.08-0.205-0.08H8.146c-0.083,0-0.151,0.026-0.205,0.08S7.86,9.346,7.86,9.429v1.715c0,0.084,0.027,0.152,0.081,0.205
        c0.054,0.055,0.122,0.08,0.205,0.08h2.286c0.083,0,0.151-0.025,0.205-0.08C10.691,11.296,10.718,11.228,10.718,11.144z"
      fill="currentColor"/>
  </symbol>
  <symbol id="sort-alpha-desc" viewBox="0 0 16 16">
    <path
      d="M11.731,10.84c0.023-0.072,0.046-0.158,0.066-0.26c0.021-0.102,0.031-0.154,0.031-0.16l0.027-0.179h0.035
        c0,0.023,0.006,0.083,0.019,0.179l0.106,0.42l0.644,1.945h-1.581L11.731,10.84z M7.017,12.857c0-0.084-0.027-0.152-0.081-0.205
        c-0.054-0.055-0.122-0.081-0.206-0.081H5.017V0.286c0-0.084-0.027-0.152-0.081-0.206S4.814,0,4.731,0H3.017
        C2.934,0,2.865,0.026,2.812,0.08S2.731,0.202,2.731,0.286v12.285H1.017c-0.131,0-0.22,0.06-0.268,0.179
        c-0.047,0.113-0.027,0.217,0.062,0.312l2.857,2.857C3.734,15.973,3.803,16,3.874,16c0.078,0,0.146-0.027,0.206-0.08l2.848-2.849
        C6.987,13,7.017,12.929,7.017,12.857L7.017,12.857z M15.275,15.054H14.65l-2.053-5.911H11.15l-2.053,5.911H8.472V16h2.563v-0.946
        h-0.67l0.42-1.286h2.169l0.42,1.286h-0.67V16h2.571V15.054L15.275,15.054z M14.481,4.776H13.4v1.062h-2.214
        c-0.125,0-0.214,0.003-0.268,0.01l-0.125,0.026V5.849l0.098-0.09c0.09-0.107,0.152-0.185,0.188-0.232l3.295-4.731V0H9.312v2.045
        h1.071V1.018h2.071c0.107,0,0.196-0.009,0.269-0.026c0.018,0,0.04-0.002,0.066-0.005c0.027-0.003,0.046-0.004,0.059-0.004v0.026
        l-0.099,0.08c-0.054,0.054-0.116,0.135-0.188,0.241L9.267,6.054v0.804h5.215V4.776L14.481,4.776z"
      fill="currentColor" />
  </symbol>
  <symbol id="sort-alpha-asc" viewBox="0 0 16 16">
    <path
      d="M11.731,1.696c0.023-0.071,0.046-0.158,0.066-0.259c0.021-0.102,0.031-0.155,0.031-0.161l0.027-0.179h0.035
        c0,0.024,0.006,0.084,0.019,0.179l0.106,0.42l0.644,1.946h-1.581L11.731,1.696z M7.016,12.856c0-0.083-0.026-0.151-0.08-0.205
        s-0.122-0.08-0.205-0.08H5.016V0.285c0-0.083-0.026-0.151-0.08-0.205S4.814,0,4.731,0H3.016C2.933,0,2.865,0.026,2.811,0.08
        s-0.08,0.122-0.08,0.205v12.286H1.016c-0.131,0-0.22,0.06-0.268,0.179c-0.048,0.113-0.026,0.217,0.062,0.312l2.857,2.856
        C3.734,15.973,3.802,16,3.874,16c0.077,0,0.146-0.027,0.205-0.081l2.849-2.848C6.987,13,7.016,12.929,7.016,12.856L7.016,12.856z
         M14.481,13.919h-1.08v1.062h-2.215c-0.125,0-0.214,0.007-0.268,0.019l-0.125,0.018V15l0.098-0.099
        c0.09-0.107,0.152-0.185,0.188-0.232l3.295-4.731V9.143H9.312v2.045h1.071V10.16h2.071c0.107,0,0.197-0.009,0.269-0.026
        c0.018,0,0.04-0.002,0.066-0.005c0.027-0.003,0.046-0.004,0.059-0.004v0.026l-0.099,0.08c-0.054,0.054-0.116,0.135-0.188,0.241
        l-3.295,4.724V16h5.215V13.919L14.481,13.919z M15.276,5.91h-0.625L12.598,0h-1.446L9.098,5.91H8.472v0.946h2.563V5.91h-0.67
        l0.42-1.285h2.169l0.42,1.285h-0.67v0.946h2.571L15.276,5.91L15.276,5.91z"
      fill="currentColor" />
  </symbol>
  <symbol id="one-bar" viewBox="0 0 16 16">
    <path
      d="M14,3H2C0.896,3,0,3.896,0,5v6c0,1.104,0.896,2,2,2h12c1.104,0,2-0.896,2-2V5C16,3.896,15.104,3,14,3z
        M15,11c0,0.553-0.448,1-1,1H8V4h6c0.552,0,1,0.448,1,1V11z"
      fill="currentColor" />
  </symbol>
  <symbol id="two-bars" viewBox="0 0 16 16">
    <path
      d="M14,3H2C0.896,3,0,3.896,0,5v6c0,1.104,0.896,2,2,2h12c1.104,0,2-0.896,2-2V5C16,3.896,15.104,3,14,3z M15,11
        c0,0.553-0.448,1-1,1H6V8h5V4h3c0.552,0,1,0.448,1,1V11z"
      fill="currentColor" />
  </symbol>
</svg>
