<svg xmlns="http://www.w3.org/2000/svg"><symbol id="arrow-down" viewBox="0 0 16 16"><path d="M2.54 2.667L0 5.237l8 8.096 8-8.097-2.538-2.57L8 8.197l-5.46-5.53z" fill="currentColor"/></symbol><symbol id="arrow-left" viewBox="0 0 16 16"><path d="M13.333 2.54L10.763 0 2.668 8l8.097 8 2.57-2.538L7.803 8l5.53-5.46z" fill="currentColor"/></symbol><symbol id="cursor-default" viewBox="0 0 16 16"><path d="M8 8.727l3.272 5.82L8.8 16l-3.345-5.89-3.273 4.436V0L13.82 8.727H8z" fill="currentColor"/></symbol><symbol id="gear" viewBox="0 0 16 16"><path d="M8 10.893C6.4 10.893 5.106 9.598 5.106 8c0-1.596 1.295-2.894 2.892-2.894S10.88 6.404 10.88 8c0 1.598-1.286 2.893-2.883 2.893zm5.797-4.555l-.52-1.256 1.052-2.067-1.29-1.29-2.115 1L9.67 2.21 9.03.26 8.95 0H7.128l-.79 2.202-1.255.518-2.07-1.048L1.727 2.96l.998 2.116-.518 1.255L0 7.05v1.82l2.204.79.518 1.254-.927 1.83-.122.24L2.96 14.27l2.118-.997 1.254.52.637 1.948.08.26h1.82l.79-2.205 1.252-.52 2.072 1.052 1.288-1.287-.998-2.114.516-1.256L16 8.95V7.13l-2.203-.792z" fill="currentColor"/></symbol><symbol id="sort-asc" viewBox="0 0 16 16"><path d="M10.718 2V.286c0-.083-.026-.152-.08-.206-.054-.054-.122-.08-.204-.08H8.146c-.083 0-.15.027-.205.08-.053.055-.08.123-.08.206V2c0 .083.027.15.08.205.055.054.123.08.206.08h2.286c.084 0 .15-.026.205-.08.054-.054.08-.122.08-.205zM6.432 12.857c0-.084-.027-.152-.08-.207-.054-.053-.123-.08-.206-.08H4.432V.285c0-.083-.027-.15-.08-.205C4.298.025 4.23 0 4.146 0H2.432c-.083 0-.152.025-.204.08-.054.055-.08.123-.08.206v12.286H.432c-.13 0-.22.06-.268.178-.048.113-.027.217.062.312l2.857 2.856c.066.055.134.082.206.082.077 0 .145-.027.205-.08l2.848-2.85c.06-.07.09-.142.09-.213zm6.002-6.285V4.857c0-.083-.027-.152-.082-.206-.054-.052-.12-.08-.205-.08h-4c-.083 0-.15.028-.205.08-.054.056-.082.124-.082.207V6.57c0 .084.027.153.08.206.055.054.123.08.206.08h4c.082 0 .15-.026.205-.08.054-.052.084-.12.084-.204zm1.712 4.573V9.43c0-.084-.026-.152-.08-.205-.055-.055-.123-.08-.207-.08H8.145c-.083 0-.15.025-.205.08-.053.052-.08.12-.08.205v1.715c0 .082.027.15.08.205.055.053.123.08.206.08h5.713c.083 0 .15-.027.206-.08.054-.055.08-.123.08-.205zm1.713 4.57V14c0-.083-.026-.15-.08-.205-.054-.054-.122-.08-.205-.08h-7.43c-.082 0-.15.026-.204.08-.053.055-.08.122-.08.205v1.715c0 .083.027.15.08.205.055.055.123.08.206.08h7.43c.082 0 .15-.025.203-.08.054-.054.08-.122.08-.205z" fill="currentColor"/></symbol><symbol id="sort-desc" viewBox="0 0 16 16"><path d="M6.432 12.857c0-.084-.027-.152-.08-.206-.054-.053-.123-.08-.206-.08H4.432V.286c0-.084-.027-.15-.08-.205S4.228 0 4.145 0H2.432c-.084 0-.152.026-.206.08s-.08.12-.08.205V12.57H.43c-.13 0-.22.06-.267.18-.047.113-.027.217.062.312l2.857 2.857c.067.053.135.08.207.08.076 0 .144-.027.204-.08l2.848-2.85c.06-.07.09-.142.09-.213zM15.862 2V.286c0-.083-.028-.152-.082-.206-.052-.053-.122-.08-.205-.08h-7.43c-.082 0-.15.027-.204.08-.053.054-.08.123-.08.207V2c0 .083.027.152.08.206.054.053.123.08.206.08h7.43c.082 0 .15-.027.204-.08.054-.054.08-.123.08-.206zm-1.715 4.572V4.857c0-.083-.027-.152-.08-.206-.055-.053-.123-.08-.206-.08H8.147c-.083 0-.152.027-.205.08-.053.054-.08.123-.08.207V6.57c0 .084.027.152.08.206.054.054.123.08.206.08h5.715c.084 0 .152-.026.206-.08s.08-.12.08-.204zm-1.714 4.572V9.43c0-.084-.027-.152-.08-.206s-.123-.08-.206-.08h-4c-.083 0-.152.026-.205.08-.054.054-.08.122-.08.205v1.714c0 .083.026.15.08.205.053.052.122.08.205.08h4c.083 0 .15-.028.205-.08.053-.055.08-.123.08-.206zm-1.715 4.57V14c0-.083-.026-.15-.08-.205s-.122-.08-.205-.08H8.146c-.083 0-.152.026-.205.08-.053.054-.08.122-.08.205v1.715c0 .084.027.15.08.205.054.054.123.08.206.08h2.287c.083 0 .15-.026.205-.08s.08-.12.08-.205z" fill="currentColor"/></symbol><symbol id="star-outline" viewBox="0 0 16 16"><path d="M11.625 13.765L8 11.852l-3.635 1.913.702-4.048L2.125 6.86l4.058-.596L8 2.592l1.817 3.673 4.058.596-2.942 2.857.692 4.048zM16 6.283c0-.236-.18-.384-.538-.44l-4.827-.703L8.47.765C8.35.502 8.193.37 8 .37s-.35.132-.47.395L5.364 5.14.54 5.842c-.36.057-.54.205-.54.44 0 .136.08.29.24.463l3.5 3.403-.827 4.81c-.013.09-.02.152-.02.19 0 .135.034.25.1.342.068.094.17.14.304.14.116 0 .244-.038.385-.115L8 13.245l4.317 2.27c.135.077.263.115.385.115.263 0 .394-.16.394-.48 0-.083-.003-.147-.01-.192l-.826-4.81 3.49-3.402c.167-.168.25-.32.25-.463z" fill="currentColor"/></symbol><symbol id="star" viewBox="0 0 16 16"><path d="M16 6.283c0-.236-.18-.384-.538-.44l-4.827-.703L8.47.765C8.35.502 8.193.37 8 .37s-.35.132-.47.395L5.364 5.14.54 5.842c-.36.057-.54.205-.54.44 0 .136.08.29.24.463l3.5 3.403-.827 4.81c-.013.09-.02.152-.02.19 0 .135.034.25.1.342.068.094.17.14.304.14.116 0 .244-.038.385-.115L8 13.245l4.317 2.27c.135.077.263.115.385.115.128 0 .226-.046.293-.14.067-.093.1-.207.1-.342 0-.082-.002-.146-.008-.19l-.827-4.81 3.49-3.403c.167-.167.25-.32.25-.462z" fill="currentColor"/></symbol><symbol id="unsort" viewBox="0 0 16 16"><path d="M12.433 2V.286c0-.083-.027-.152-.08-.206-.055-.053-.124-.08-.207-.08h-4c-.083 0-.15.027-.205.08-.053.054-.08.122-.08.206V2c0 .083.027.152.08.205.055.054.123.08.206.08h4c.083 0 .15-.026.205-.08.055-.053.083-.122.083-.205zm1.713 13.715V14c0-.083-.026-.15-.08-.205s-.122-.08-.206-.08H8.146c-.083 0-.15.026-.205.08s-.08.122-.08.205v1.715c0 .083.027.15.08.205s.123.08.206.08h5.714c.084 0 .152-.026.206-.08s.08-.122.08-.205zm1.715-9.143V4.857c0-.083-.026-.15-.08-.205-.054-.054-.122-.08-.204-.08h-7.43c-.082 0-.15.026-.205.08-.052.054-.08.122-.08.205v1.715c0 .083.028.15.08.205.056.054.124.08.206.08h7.43c.082 0 .15-.026.205-.08.054-.053.08-.122.08-.205zm-5.142 4.572V9.43c0-.084-.026-.152-.08-.206s-.122-.08-.205-.08H8.146c-.083 0-.15.026-.205.08s-.08.122-.08.205v1.714c0 .084.027.152.08.205.055.054.123.08.206.08h2.286c.083 0 .15-.026.205-.08.054-.054.08-.122.08-.206z" fill="currentColor"/></symbol><symbol id="sort-alpha-desc" viewBox="0 0 16 16"><path d="M11.73 10.84c.024-.072.047-.158.067-.26.02-.102.03-.154.03-.16l.028-.18h.035c0 .024.006.084.02.18l.105.42.644 1.945h-1.582l.653-1.945zm-4.713 2.017c0-.084-.027-.152-.08-.205-.055-.055-.123-.08-.207-.08H5.017V.285c0-.084-.027-.152-.08-.206S4.813 0 4.73 0H3.018c-.083 0-.152.026-.205.08s-.08.122-.08.206V12.57H1.016c-.13 0-.22.06-.268.18-.048.113-.028.217.06.312L3.67 15.92c.066.053.135.08.206.08.078 0 .146-.027.206-.08l2.848-2.85c.06-.07.09-.14.09-.213zm8.258 2.197h-.625l-2.053-5.91H11.15l-2.053 5.91h-.625V16h2.563v-.946h-.67l.42-1.286h2.17l.42 1.286h-.67V16h2.57v-.946zM14.48 4.776H13.4v1.062h-2.214c-.125 0-.214.003-.268.01l-.125.026V5.85l.098-.09c.09-.108.153-.186.19-.233l3.294-4.73V0H9.312v2.045h1.07V1.018h2.072c.107 0 .196-.01.27-.026.017 0 .04-.002.065-.005.026-.003.045-.004.058-.004v.026l-.1.08c-.053.053-.115.134-.187.24L9.268 6.054v.804h5.215V4.776z" fill="currentColor"/></symbol><symbol id="sort-alpha-asc" viewBox="0 0 16 16"><path d="M11.73 1.696c.024-.07.047-.158.067-.26.02-.1.03-.154.03-.16l.028-.18h.035c0 .025.006.085.02.18l.105.42.644 1.946h-1.582l.653-1.946zm-4.714 11.16c0-.083-.026-.15-.08-.205s-.122-.08-.205-.08H5.017V.286c0-.083-.026-.15-.08-.205S4.814 0 4.73 0H3.017c-.083 0-.15.026-.205.08s-.08.122-.08.205V12.57H1.017c-.13 0-.22.06-.268.18-.048.113-.026.217.062.312l2.857 2.856c.067.055.135.082.207.082.077 0 .146-.027.205-.08l2.848-2.85c.06-.07.088-.14.088-.214zm7.465 1.063H13.4v1.06h-2.214c-.125 0-.214.008-.268.02l-.125.018V15l.098-.1c.09-.106.153-.184.19-.23l3.294-4.732v-.795H9.312v2.045h1.07V10.16h2.072c.107 0 .197-.01.27-.026.017 0 .04-.002.065-.005.026-.004.045-.005.058-.005v.026l-.1.08c-.053.055-.115.136-.187.242l-3.294 4.724V16h5.215v-2.08zm.796-8.01h-.625L12.6 0h-1.446L9.098 5.91h-.626v.946h2.563V5.91h-.67l.42-1.285h2.17l.42 1.285h-.67v.946h2.57V5.91z" fill="currentColor"/></symbol><symbol id="one-bar" viewBox="0 0 16 16"><path d="M14 3H2C.896 3 0 3.896 0 5v6c0 1.104.896 2 2 2h12c1.104 0 2-.896 2-2V5c0-1.104-.896-2-2-2zm1 8c0 .553-.448 1-1 1H8V4h6c.552 0 1 .448 1 1v6z" fill="currentColor"/></symbol><symbol id="two-bars" viewBox="0 0 16 16"><path d="M14 3H2C.896 3 0 3.896 0 5v6c0 1.104.896 2 2 2h12c1.104 0 2-.896 2-2V5c0-1.104-.896-2-2-2zm1 8c0 .553-.448 1-1 1H6V8h5V4h3c.552 0 1 .448 1 1v6z" fill="currentColor"/></symbol><symbol id="unlocked" viewBox="0 0 16 16"><path d="M3 8c-.277 0-.514.098-.708.292S2 8.722 2 9v6c0 .277.098.514.292.708S2.722 16 3 16h10c.277 0 .514-.098.708-.292S14 15.278 14 15V9c0-.277-.098-.514-.292-.708S13.278 8 13 8h-.333V4.667c0-1.285-.457-2.384-1.37-3.297S9.285 0 8 0 5.616.457 4.703 1.37s-1.37 2.012-1.37 3.297c0 .18.066.337.198.47s.29.196.47.196h.667c.18 0 .337-.065.47-.197s.196-.288.196-.47c0-.735.26-1.364.78-1.885C6.637 2.26 7.264 2 8 2s1.364.26 1.886.78c.52.522.78 1.15.78 1.887V8H3z" fill="currentColor"/></symbol><symbol id="locked" viewBox="0 0 16 16"><path d="M5.333 7.333v-2c0-.736.26-1.364.78-1.886.522-.52 1.15-.78 1.886-.78.735 0 1.364.26 1.885.78.52.52.78 1.15.78 1.886v2H5.334zm8.667 1c0-.278-.098-.514-.292-.708-.194-.195-.43-.292-.71-.292h-.332v-2c0-1.278-.458-2.375-1.375-3.292C10.375 1.126 9.278.668 8 .668c-1.278 0-2.375.46-3.292 1.375-.917.916-1.375 2.013-1.375 3.29v2H3c-.278 0-.515.098-.71.293-.193.195-.29.43-.29.708v6c0 .277.097.514.29.707.195.195.432.293.71.293h10c.277 0 .514-.098.708-.293.194-.193.29-.43.29-.707l.002-6z" fill="currentColor"/></symbol><symbol id="union" viewBox="0 0 16 16"><path d="M12 1v7c0 2.21-1.79 4-4 4s-4-1.79-4-4V1H1v7c0 3.867 3.134 7 7 7 3.865 0 7-3.133 7-7V1h-3z" fill="currentColor"/></symbol><symbol id="intersection" viewBox="0 0 16 16"><path d="M15 15V8c0-3.867-3.135-7-7-7-3.866 0-7 3.133-7 7v7h3V8c0-2.21 1.792-4 4-4s4 1.79 4 4v7h3z" fill="currentColor"/></symbol><symbol id="set-inactive" viewBox="0 0 16 16"><path fill="currentColor" d="M1 6.5h14v3H1z"/></symbol><symbol id="not" viewBox="0 0 16 16"><path d="M8 1C4.134 1 1 4.134 1 8c0 3.865 3.134 7 7 7 3.865 0 7-3.135 7-7 0-3.866-3.135-7-7-7zM3 8c0-2.76 2.24-5 5-5 1.02 0 1.964.308 2.754.832l-6.922 6.923C3.31 9.965 3 9.02 3 8zm5 5c-1.02 0-1.964-.31-2.754-.83l6.922-6.924C12.69 6.036 13 6.98 13 8c0 2.762-2.238 5-5 5z" fill="currentColor"/></symbol></svg>