<svg xmlns="http://www.w3.org/2000/svg"><symbol id="arrow-left" viewBox="0 0 16 16"><path d="M13.333 2.54L10.763 0 2.668 8l8.097 8 2.57-2.538L7.803 8l5.53-5.46z" fill="currentColor"/></symbol><symbol id="cursor-default" viewBox="0 0 16 16"><path d="M8 8.727l3.272 5.82L8.8 16l-3.345-5.89-3.273 4.436V0L13.82 8.727H8z" fill="currentColor"/></symbol><symbol id="gear" viewBox="0 0 16 16"><path d="M8 10.893C6.4 10.893 5.106 9.598 5.106 8c0-1.596 1.295-2.894 2.892-2.894S10.88 6.404 10.88 8c0 1.598-1.286 2.893-2.883 2.893zm5.797-4.555l-.52-1.256 1.052-2.067-1.29-1.29-2.115 1L9.67 2.21 9.03.26 8.95 0H7.128l-.79 2.202-1.255.518-2.07-1.048L1.727 2.96l.998 2.116-.518 1.255L0 7.05v1.82l2.204.79.518 1.254-.927 1.83-.122.24L2.96 14.27l2.118-.997 1.254.52.637 1.948.08.26h1.82l.79-2.205 1.252-.52 2.072 1.052 1.288-1.287-.998-2.114.516-1.256L16 8.95V7.13l-2.203-.792z" fill="currentColor"/></symbol><symbol id="sort-asc" viewBox="0 0 16 16"><path d="M10.718 2V.286c0-.083-.026-.152-.08-.206-.054-.054-.122-.08-.204-.08H8.146c-.083 0-.15.027-.205.08-.053.055-.08.123-.08.206V2c0 .083.027.15.08.205.055.054.123.08.206.08h2.286c.084 0 .15-.026.205-.08.054-.054.08-.122.08-.205zM6.432 12.857c0-.084-.027-.152-.08-.207-.054-.053-.123-.08-.206-.08H4.432V.285c0-.083-.027-.15-.08-.205C4.298.025 4.23 0 4.146 0H2.432c-.083 0-.152.025-.204.08-.054.055-.08.123-.08.206v12.286H.432c-.13 0-.22.06-.268.178-.048.113-.027.217.062.312l2.857 2.856c.066.055.134.082.206.082.077 0 .145-.027.205-.08l2.848-2.85c.06-.07.09-.142.09-.213zm6.002-6.285V4.857c0-.083-.027-.152-.082-.206-.054-.052-.12-.08-.205-.08h-4c-.083 0-.15.028-.205.08-.054.056-.082.124-.082.207V6.57c0 .084.027.153.08.206.055.054.123.08.206.08h4c.082 0 .15-.026.205-.08.054-.052.084-.12.084-.204zm1.712 4.573V9.43c0-.084-.026-.152-.08-.205-.055-.055-.123-.08-.207-.08H8.145c-.083 0-.15.025-.205.08-.053.052-.08.12-.08.205v1.715c0 .082.027.15.08.205.055.053.123.08.206.08h5.713c.083 0 .15-.027.206-.08.054-.055.08-.123.08-.205zm1.713 4.57V14c0-.083-.026-.15-.08-.205-.054-.054-.122-.08-.205-.08h-7.43c-.082 0-.15.026-.204.08-.053.055-.08.122-.08.205v1.715c0 .083.027.15.08.205.055.055.123.08.206.08h7.43c.082 0 .15-.025.203-.08.054-.054.08-.122.08-.205z" fill="currentColor"/></symbol><symbol id="sort-desc" viewBox="0 0 16 16"><path d="M6.432 12.857c0-.084-.027-.152-.08-.206-.054-.053-.123-.08-.206-.08H4.432V.286c0-.084-.027-.15-.08-.205S4.228 0 4.145 0H2.432c-.084 0-.152.026-.206.08s-.08.12-.08.205V12.57H.43c-.13 0-.22.06-.267.18-.047.113-.027.217.062.312l2.857 2.857c.067.053.135.08.207.08.076 0 .144-.027.204-.08l2.848-2.85c.06-.07.09-.142.09-.213zM15.862 2V.286c0-.083-.028-.152-.082-.206-.052-.053-.122-.08-.205-.08h-7.43c-.082 0-.15.027-.204.08-.053.054-.08.123-.08.207V2c0 .083.027.152.08.206.054.053.123.08.206.08h7.43c.082 0 .15-.027.204-.08.054-.054.08-.123.08-.206zm-1.715 4.572V4.857c0-.083-.027-.152-.08-.206-.055-.053-.123-.08-.206-.08H8.147c-.083 0-.152.027-.205.08-.053.054-.08.123-.08.207V6.57c0 .084.027.152.08.206.054.054.123.08.206.08h5.715c.084 0 .152-.026.206-.08s.08-.12.08-.204zm-1.714 4.572V9.43c0-.084-.027-.152-.08-.206s-.123-.08-.206-.08h-4c-.083 0-.152.026-.205.08-.054.054-.08.122-.08.205v1.714c0 .083.026.15.08.205.053.052.122.08.205.08h4c.083 0 .15-.028.205-.08.053-.055.08-.123.08-.206zm-1.715 4.57V14c0-.083-.026-.15-.08-.205s-.122-.08-.205-.08H8.146c-.083 0-.152.026-.205.08-.053.054-.08.122-.08.205v1.715c0 .084.027.15.08.205.054.054.123.08.206.08h2.287c.083 0 .15-.026.205-.08s.08-.12.08-.205z" fill="currentColor"/></symbol><symbol id="star-outline" viewBox="0 0 16 16"><path d="M11.625 13.765L8 11.852l-3.635 1.913.702-4.048L2.125 6.86l4.058-.596L8 2.592l1.817 3.673 4.058.596-2.942 2.857.692 4.048zM16 6.283c0-.236-.18-.384-.538-.44l-4.827-.703L8.47.765C8.35.502 8.193.37 8 .37s-.35.132-.47.395L5.364 5.14.54 5.842c-.36.057-.54.205-.54.44 0 .136.08.29.24.463l3.5 3.403-.827 4.81c-.013.09-.02.152-.02.19 0 .135.034.25.1.342.068.094.17.14.304.14.116 0 .244-.038.385-.115L8 13.245l4.317 2.27c.135.077.263.115.385.115.263 0 .394-.16.394-.48 0-.083-.003-.147-.01-.192l-.826-4.81 3.49-3.402c.167-.168.25-.32.25-.463z" fill="currentColor"/></symbol><symbol id="star" viewBox="0 0 16 16"><path d="M16 6.283c0-.236-.18-.384-.538-.44l-4.827-.703L8.47.765C8.35.502 8.193.37 8 .37s-.35.132-.47.395L5.364 5.14.54 5.842c-.36.057-.54.205-.54.44 0 .136.08.29.24.463l3.5 3.403-.827 4.81c-.013.09-.02.152-.02.19 0 .135.034.25.1.342.068.094.17.14.304.14.116 0 .244-.038.385-.115L8 13.245l4.317 2.27c.135.077.263.115.385.115.128 0 .226-.046.293-.14.067-.093.1-.207.1-.342 0-.082-.002-.146-.008-.19l-.827-4.81 3.49-3.403c.167-.167.25-.32.25-.462z" fill="currentColor"/></symbol><symbol id="unsort" viewBox="0 0 16 16"><path d="M12.433 2V.286c0-.083-.027-.152-.08-.206-.055-.053-.124-.08-.207-.08h-4c-.083 0-.15.027-.205.08-.053.054-.08.122-.08.206V2c0 .083.027.152.08.205.055.054.123.08.206.08h4c.083 0 .15-.026.205-.08.055-.053.083-.122.083-.205zm1.713 13.715V14c0-.083-.026-.15-.08-.205s-.122-.08-.206-.08H8.146c-.083 0-.15.026-.205.08s-.08.122-.08.205v1.715c0 .083.027.15.08.205s.123.08.206.08h5.714c.084 0 .152-.026.206-.08s.08-.122.08-.205zm1.715-9.143V4.857c0-.083-.026-.15-.08-.205-.054-.054-.122-.08-.204-.08h-7.43c-.082 0-.15.026-.205.08-.052.054-.08.122-.08.205v1.715c0 .083.028.15.08.205.056.054.124.08.206.08h7.43c.082 0 .15-.026.205-.08.054-.053.08-.122.08-.205zm-5.142 4.572V9.43c0-.084-.026-.152-.08-.206s-.122-.08-.205-.08H8.146c-.083 0-.15.026-.205.08s-.08.122-.08.205v1.714c0 .084.027.152.08.205.055.054.123.08.206.08h2.286c.083 0 .15-.026.205-.08.054-.054.08-.122.08-.206z" fill="currentColor"/></symbol></svg>